name ./resultDataOpenSim/trcMotMarkerGrf/sub10/grf-03-05.mot
datacolumns 19
datarows 25
range 1.50400000 1.60000000
endheader

                time	     ground_force_vx	     ground_force_vy	     ground_force_vz	     ground_force_px	     ground_force_py	     ground_force_pz	   l_ground_force_vx	   l_ground_force_vy	   l_ground_force_vz	   l_ground_force_px	   l_ground_force_py	   l_ground_force_pz	     ground_torque_x	     ground_torque_y	     ground_torque_z	   l_ground_torque_x	   l_ground_torque_y	   l_ground_torque_z	
          1.50400000	        -16.41364448	        391.08931142	        -16.31445040	          0.80996021	          0.00000000	          0.13881379	          0.00000000	          0.00000000	          0.00000000	          0.00000000	          0.00000000	          0.00000000	          0.00000000	          3.01808660	          0.00000000	          0.00000000	          0.00000000	          0.00000000	
          1.50800000	        -13.22466268	        384.29452280	        -16.09499714	          0.81149166	          0.00000000	          0.13908170	          0.00000000	          0.00000000	          0.00000000	          0.00000000	          0.00000000	          0.00000000	          0.00000000	          2.96871660	          0.00000000	          0.00000000	          0.00000000	          0.00000000	
          1.51200000	         -9.99462019	        378.42120585	        -15.77412901	          0.81302417	          0.00000000	          0.13936363	          0.00000000	          0.00000000	          0.00000000	          0.00000000	          0.00000000	          0.00000000	          0.00000000	          2.89601619	          0.00000000	          0.00000000	          0.00000000	          0.00000000	
          1.51600000	         -7.22772088	        373.49031405	        -15.35508767	          0.81463573	          0.00000000	          0.13963479	          0.00000000	          0.00000000	          0.00000000	          0.00000000	          0.00000000	          0.00000000	          0.00000000	          2.82782583	          0.00000000	          0.00000000	          0.00000000	          0.00000000	
          1.52000000	         -5.30833763	        369.51897240	        -14.87470721	          0.81639786	          0.00000000	          0.13986312	          0.00000000	          0.00000000	          0.00000000	          0.00000000	          0.00000000	          0.00000000	          0.00000000	          2.79017034	          0.00000000	          0.00000000	          0.00000000	          0.00000000	
          1.52400000	         -4.39753806	        366.49853034	        -14.38857568	          0.81834500	          0.00000000	          0.14002072	          0.00000000	          0.00000000	          0.00000000	          0.00000000	          0.00000000	          0.00000000	          0.00000000	          2.79970263	          0.00000000	          0.00000000	          0.00000000	          0.00000000	
          1.52800000	         -4.39663194	        364.37302945	        -13.95532856	          0.82045531	          0.00000000	          0.14011156	          0.00000000	          0.00000000	          0.00000000	          0.00000000	          0.00000000	          0.00000000	          0.00000000	          2.85935685	          0.00000000	          0.00000000	          0.00000000	          0.00000000	
          1.53200000	         -4.98015906	        363.05439824	        -13.62203144	          0.82265903	          0.00000000	          0.14016710	          0.00000000	          0.00000000	          0.00000000	          0.00000000	          0.00000000	          0.00000000	          0.00000000	          2.95836875	          0.00000000	          0.00000000	          0.00000000	          0.00000000	
          1.53600000	         -5.68536266	        362.46302583	        -13.41458108	          0.82484858	          0.00000000	          0.14021850	          0.00000000	          0.00000000	          0.00000000	          0.00000000	          0.00000000	          0.00000000	          0.00000000	          3.07634188	          0.00000000	          0.00000000	          0.00000000	          0.00000000	
          1.54000000	         -6.03755442	        362.55170219	        -13.33609670	          0.82691406	          0.00000000	          0.14028993	          0.00000000	          0.00000000	          0.00000000	          0.00000000	          0.00000000	          0.00000000	          0.00000000	          3.18979703	          0.00000000	          0.00000000	          0.00000000	          0.00000000	
          1.54400000	         -5.67708018	        363.29857826	        -13.37246924	          0.82877948	          0.00000000	          0.14039494	          0.00000000	          0.00000000	          0.00000000	          0.00000000	          0.00000000	          0.00000000	          0.00000000	          3.27905781	          0.00000000	          0.00000000	          0.00000000	          0.00000000	
          1.54800000	         -4.44985081	        364.68524126	        -13.50244772	          0.83041817	          0.00000000	          0.14053532	          0.00000000	          0.00000000	          0.00000000	          0.00000000	          0.00000000	          0.00000000	          0.00000000	          3.33348143	          0.00000000	          0.00000000	          0.00000000	          0.00000000	
          1.55200000	         -2.43620563	        366.68462435	        -13.70827514	          0.83185191	          0.00000000	          0.14071093	          0.00000000	          0.00000000	          0.00000000	          0.00000000	          0.00000000	          0.00000000	          0.00000000	          3.35375099	          0.00000000	          0.00000000	          0.00000000	          0.00000000	
          1.55600000	          0.08488250	        369.27058390	        -13.98220353	          0.83313276	          0.00000000	          0.14092023	          0.00000000	          0.00000000	          0.00000000	          0.00000000	          0.00000000	          0.00000000	          0.00000000	          3.35086775	          0.00000000	          0.00000000	          0.00000000	          0.00000000	
          1.56000000	          2.71978669	        372.43205768	        -14.32625210	          0.83432915	          0.00000000	          0.14115273	          0.00000000	          0.00000000	          0.00000000	          0.00000000	          0.00000000	          0.00000000	          0.00000000	          3.34231581	          0.00000000	          0.00000000	          0.00000000	          0.00000000	
          1.56400000	          5.07094991	        376.17356286	        -14.74665748	          0.83552390	          0.00000000	          0.14139226	          0.00000000	          0.00000000	          0.00000000	          0.00000000	          0.00000000	          0.00000000	          0.00000000	          3.34648558	          0.00000000	          0.00000000	          0.00000000	          0.00000000	
          1.56800000	          6.84918237	        380.50434513	        -15.24762762	          0.83678617	          0.00000000	          0.14162538	          0.00000000	          0.00000000	          0.00000000	          0.00000000	          0.00000000	          0.00000000	          0.00000000	          3.37684380	          0.00000000	          0.00000000	          0.00000000	          0.00000000	
          1.57200000	          7.95464201	        385.42663236	        -15.82939242	          0.83813235	          0.00000000	          0.14184918	          0.00000000	          0.00000000	          0.00000000	          0.00000000	          0.00000000	          0.00000000	          0.00000000	          3.43750524	          0.00000000	          0.00000000	          0.00000000	          0.00000000	
          1.57600000	          8.49843559	        390.93579393	        -16.49100656	          0.83953665	          0.00000000	          0.14207276	          0.00000000	          0.00000000	          0.00000000	          0.00000000	          0.00000000	          0.00000000	          0.00000000	          3.52162502	          0.00000000	          0.00000000	          0.00000000	          0.00000000	
          1.58000000	          8.76108627	        397.03194427	        -17.23342960	          0.84095856	          0.00000000	          0.14229724	          0.00000000	          0.00000000	          0.00000000	          0.00000000	          0.00000000	          0.00000000	          0.00000000	          3.61325298	          0.00000000	          0.00000000	          0.00000000	          0.00000000	
          1.58400000	          9.10984546	        403.72605532	        -18.06135114	          0.84235674	          0.00000000	          0.14250897	          0.00000000	          0.00000000	          0.00000000	          0.00000000	          0.00000000	          0.00000000	          0.00000000	          3.69216110	          0.00000000	          0.00000000	          0.00000000	          0.00000000	
          1.58800000	          9.89790162	        411.03365349	        -18.98449453	          0.84369184	          0.00000000	          0.14269621	          0.00000000	          0.00000000	          0.00000000	          0.00000000	          0.00000000	          0.00000000	          0.00000000	          3.74013903	          0.00000000	          0.00000000	          0.00000000	          0.00000000	
          1.59200000	         11.36275727	        418.96201457	        -20.01743171	          0.84493002	          0.00000000	          0.14286190	          0.00000000	          0.00000000	          0.00000000	          0.00000000	          0.00000000	          0.00000000	          0.00000000	          3.74676206	          0.00000000	          0.00000000	          0.00000000	          0.00000000	
          1.59600000	         13.55262446	        427.50079829	        -21.17863927	          0.84606597	          0.00000000	          0.14301671	          0.00000000	          0.00000000	          0.00000000	          0.00000000	          0.00000000	          0.00000000	          0.00000000	          3.71284800	          0.00000000	          0.00000000	          0.00000000	          0.00000000	
          1.60000000	         16.31297946	        436.62626164	        -22.48742331	          0.84713968	          0.00000000	          0.14316559	          0.00000000	          0.00000000	          0.00000000	          0.00000000	          0.00000000	          0.00000000	          0.00000000	          3.65062535	          0.00000000	          0.00000000	          0.00000000	          0.00000000	
